# xmcd
#
# Track frame offsets: 
#        150
#        20653
#        34410
#        47384
#        62918
#        76098
#        89088
#        107394
#        123126
#        137069
#        148539
#        159893
#        172083
#        185246
#        195965
#        211239
#        227290
#        238514
#
# Disc length: 3367 seconds
#
# Revision: 2
# Processed by: cddbd v1.5.2PL0 Copyright (c) Steve Scherf et al.
# Submitted via: ExactAudioCopyFreeDBPlugin 1.0
#
DISCID=e90d2512
DTITLE=Various Artist - Blick auf Country - Line Dancing
DYEAR=2006
DGENRE=Country
TTITLE0=Asleep At The Wheel - Lay Down Sally
TTITLE1=Chris Cagle - Rock The Boat
TTITLE2=Susan Ashton - Come On Out Of The Rain
TTITLE3=Dierks Bentley - I Bought The Shoes
TTITLE4=Trace Adkins - See Jane Run
TTITLE5=Julie Reeves - Party Down
TTITLE6=Chris Le Doux - Hionky Tonk World
TTITLE7=Coal - Rain Keeps Falling Down
TTITLE8=Larry Gatlin - Boogie And Beethoven
TTITLE9=Linda Davies - Do I Do It To You Too
TTITLE10=Jameson Clark - Waitin On The Whiskey
TTITLE11=Pirates Of The Mississippi - Wild Side Of Life
TTITLE12=Deana Carter - If This Is Love
TTITLE13=Lisa Brokop - Before He Kissed Me
TTITLE14=Eddy Raven - In A Letter To You
TTITLE15=Wild Rose - Hillibilly Twist
TTITLE16=Shenandoah - Darned If Don't (Danged If I Do)
TTITLE17=George Ducas - In No Time At All
EXTD=Blick Edition
EXTT0=
EXTT1=
EXTT2=
EXTT3=
EXTT4=
EXTT5=
EXTT6=
EXTT7=
EXTT8=
EXTT9=
EXTT10=
EXTT11=
EXTT12=
EXTT13=
EXTT14=
EXTT15=
EXTT16=
EXTT17=
PLAYORDER=
